<?xml version="1.0" standalone="no"?>
<svg xmlns:xlink="http://www.w3.org/1999/xlink" id="wave" style="transform:rotate(0deg); transition: 0.3s" viewBox="0 0 1440 490" version="1.1" xmlns="http://www.w3.org/2000/svg"><defs><linearGradient id="sw-gradient-0" x1="0" x2="0" y1="1" y2="0"><stop stop-color="rgba(207, 167, 126, 1)" offset="0%"/><stop stop-color="rgba(190.254, 166.631, 150.882, 1)" offset="100%"/></linearGradient></defs><path style="transform:translate(0, 0px); opacity:1" fill="url(#sw-gradient-0)" d="M0,245L40,261.3C80,278,160,310,240,334.8C320,359,400,376,480,367.5C560,359,640,327,720,318.5C800,310,880,327,960,334.8C1040,343,1120,343,1200,334.8C1280,327,1360,310,1440,310.3C1520,310,1600,327,1680,351.2C1760,376,1840,408,1920,367.5C2000,327,2080,212,2160,147C2240,82,2320,65,2400,65.3C2480,65,2560,82,2640,89.8C2720,98,2800,98,2880,106.2C2960,114,3040,131,3120,187.8C3200,245,3280,343,3360,318.5C3440,294,3520,147,3600,89.8C3680,33,3760,65,3840,106.2C3920,147,4000,196,4080,228.7C4160,261,4240,278,4320,294C4400,310,4480,327,4560,285.8C4640,245,4720,147,4800,122.5C4880,98,4960,147,5040,138.8C5120,131,5200,65,5280,57.2C5360,49,5440,98,5520,171.5C5600,245,5680,343,5720,392L5760,441L5760,490L5720,490C5680,490,5600,490,5520,490C5440,490,5360,490,5280,490C5200,490,5120,490,5040,490C4960,490,4880,490,4800,490C4720,490,4640,490,4560,490C4480,490,4400,490,4320,490C4240,490,4160,490,4080,490C4000,490,3920,490,3840,490C3760,490,3680,490,3600,490C3520,490,3440,490,3360,490C3280,490,3200,490,3120,490C3040,490,2960,490,2880,490C2800,490,2720,490,2640,490C2560,490,2480,490,2400,490C2320,490,2240,490,2160,490C2080,490,2000,490,1920,490C1840,490,1760,490,1680,490C1600,490,1520,490,1440,490C1360,490,1280,490,1200,490C1120,490,1040,490,960,490C880,490,800,490,720,490C640,490,560,490,480,490C400,490,320,490,240,490C160,490,80,490,40,490L0,490Z"/></svg>